Coordinates
version=1
nRows=16
nColumns=33
inDegrees=yes

Units are S.I. units (second, meters, Newtons, ...)
Angles are in degrees.

endheader
time	ground_thorax_rot_x	ground_thorax_rot_y	ground_thorax_rot_z	ground_thorax_tx	ground_thorax_ty	ground_thorax_tz	clav_prot_r	clav_elev_r	scapula_abduction_r	scapula_elevation_r	scapula_upward_rot_r	scapula_winging_r	shoulder_elv_r	plane_of_elev_r	axial_rot_r	elbow_flexion_r	pro_sup_r	wrist_flex_r	wrist_dev_r	clav_prot_l	clav_elev_l	scapula_abduction_l	scapula_elevation_l	scapula_upward_rot_l	scapula_winging_l	shoulder_elv_l	plane_of_elev_l	axial_rot_l	elbow_flexion_l	pro_sup_l	wrist_flex_l	wrist_dev_l
      9.35000000	     35.48640257	     11.01845881	     13.56369125	    -83.51933807	    766.99736221	      7.98937134	     11.02899614	     36.85548788	     45.00000000	     34.63870730	     -8.15422352	   2787.25128904	  -3542.58686475	     28.12343034	     64.55599175	   1449.44722178	     30.12082680	     17.32823392	     10.69858701	      5.48935166	    -45.00000000	    -45.00000000	     45.00000000	    -26.18281697	  -1352.66049028	  -2092.31045668	     21.66129005	    -46.65434489	    366.77804306	     29.04370528	      8.41819255	    -17.98504539
      9.36000000	     35.40542267	     10.65985472	     13.29794765	    -82.16533753	    767.02410635	      8.21615082	     10.89723843	     36.81030759	     45.00000000	     34.43375985	     -7.58223007	   2787.26605809	  -3542.74027780	     28.18169337	     64.50845765	   1449.34337906	     29.87035469	     17.30826219	     10.81077292	      5.59721852	    -45.00000000	    -45.00000000	     45.00000000	    -25.25535405	  -1352.52135541	  -2092.61454142	     21.77555958	    -46.29657454	    366.60551655	     29.08992388	      8.38663160	    -17.91932215
      9.37000000	     35.36231106	     10.45559487	     13.21365158	    -80.92436206	    767.09346933	      8.43718664	     10.77735604	     36.72670087	     45.00000000	     34.31934991	     -7.24152493	   2787.29995012	  -3542.79453268	     28.19309465	     64.54646231	   1449.28097157	     29.59422284	     17.28509435	     10.87829174	      5.49908274	    -45.00000000	    -45.00000000	     45.00000000	    -24.95338052	  -1352.62060111	  -2092.69958346	     21.80438837	    -46.18549525	    366.45170104	     29.15009348	      8.38623337	    -17.87157272
      9.38000000	     35.27615678	     10.33743003	     13.17595299	    -79.78098006	    767.19639269	      8.65129004	     10.68384176	     36.62688332	     45.00000000	     34.18954483	     -6.94997876	   2787.34763878	  -3542.79688118	     28.14064109	     64.51494849	   1449.22476310	     29.32851012	     17.25816000	     10.89646993	      5.42511332	    -45.00000000	    -45.00000000	     45.00000000	    -24.78171492	  -1352.80052767	  -2092.64475954	     21.77038901	    -46.08414192	    366.36817087	     29.17787071	      8.43604710	    -17.86598214
      9.39000000	     35.40049713	     10.29458978	     13.10411161	    -78.72797567	    767.32403354	      8.85741830	     10.62340424	     36.35667140	     45.00000000	     34.31523993	     -6.93996126	   2787.66244334	  -3542.66053312	     27.96315163	     64.57147459	   1449.43966806	     29.10987752	     17.33521957	     10.90804965	      5.29388059	    -45.00000000	    -45.00000000	     45.00000000	    -24.94048800	  -1353.25588187	  -2092.49587756	     21.60920645	    -46.10136274	    366.54486934	     29.18376073	      8.56548729	    -17.96974484
      9.40000000	     35.24201679	     10.16011121	     13.11672066	    -77.75754294	    767.46926355	      9.05329769	     10.57453154	     36.41694078	     45.00000000	     34.10152842	     -6.75585603	   2787.55302060	  -3542.90205587	     28.13094266	     64.49862984	   1449.13976556	     28.94653033	     17.25613762	     10.98712556	      5.48106103	    -45.00000000	    -45.00000000	     45.00000000	    -24.44212921	  -1352.97817133	  -2092.85090120	     21.88864157	    -45.72599937	    366.17076827	     29.15064052	      8.45275382	    -17.81318708
      9.41000000	     35.27013429	     10.00495190	     13.00128183	    -76.87132910	    767.62449297	      9.24166392	     10.51193794	     36.31829394	     45.00000000	     34.02125846	     -6.38345611	   2787.76223552	  -3542.71412859	     27.99227509	     64.51971017	   1449.28185477	     28.76011392	     17.29520055	     10.91392557	      5.27253427	    -45.00000000	    -45.00000000	     45.00000000	    -24.45145123	  -1353.48067469	  -2092.50863994	     21.59135244	    -45.79236808	    366.29952640	     29.17399638	      8.66424314	    -17.95834317
      9.42000000	     35.20313739	      9.90735410	     12.99434689	    -76.06496553	    767.78459043	      9.42167629	     10.44129221	     36.33671279	     45.00000000	     33.93085710	     -6.24011722	   2787.56150355	  -3543.02149306	     28.20209790	     64.58984318	   1449.09652327	     28.65917816	     17.24717868	     10.99958580	      5.42723557	    -45.00000000	    -45.00000000	     45.00000000	    -23.88318243	  -1353.02696717	  -2093.03054801	     21.98204515	    -45.45558964	    365.99595758	     29.13141840	      8.41028829	    -17.74644328
      9.43000000	     35.17532844	      9.85034629	     12.92920180	    -75.33936496	    767.94508425	      9.59317573	     10.37788958	     36.27967448	     45.00000000	     33.84703493	     -5.78575885	   2787.59062385	  -3542.93250283	     27.94221985	     64.56818367	   1449.24859946	     28.52343626	     17.27475857	     10.86125131	      5.19847732	    -45.00000000	    -45.00000000	     45.00000000	    -23.87645269	  -1353.47784232	  -2092.65716314	     21.63696161	    -45.55841845	    366.31322422	     29.15598334	      8.62085770	    -17.94875966
      9.44000000	     35.26924313	      9.63240666	     12.75741282	    -74.69447911	    768.10286124	      9.75146250	     10.26888525	     36.24731426	     45.00000000	     33.90086865	     -5.84907993	   2787.75324986	  -3542.93462258	     28.13892265	     64.84655561	   1449.35851788	     28.48874863	     17.34307490	     10.94472982	      5.27498680	    -45.00000000	    -45.00000000	     45.00000000	    -23.62599421	  -1353.36536979	  -2092.96138889	     21.92051257	    -45.46975895	    366.18496282	     29.15034211	      8.46074997	    -17.83027471
      9.45000000	     35.17040380	      9.76467013	     12.84476918	    -74.13087597	    768.25579980	      9.89801836	     10.30006039	     36.24024374	     45.00000000	     33.76378234	     -5.46462148	   2787.62004734	  -3542.98416972	     27.90214104	     64.68502379	   1449.28254126	     28.43400201	     17.29321244	     10.76412040	      5.08679395	    -45.00000000	    -45.00000000	     45.00000000	    -23.66368532	  -1353.73421108	  -2092.63185878	     21.62546354	    -45.55580548	    366.28479021	     29.18461574	      8.64553594	    -17.96699750
      9.46000000	     35.26653939	      9.49363656	     12.69009842	    -73.64829674	    768.40317014	     10.02869268	     10.17863387	     36.25234186	     45.00000000	     33.81910781	     -5.51817044	   2787.76567190	  -3543.01506037	     28.15751694	     64.95491334	   1449.42810875	     28.45920360	     17.38067612	     10.89592993	      5.19930526	    -45.00000000	    -45.00000000	     45.00000000	    -23.31412926	  -1353.42721400	  -2093.02849147	     21.96910395	    -45.38505141	    366.14270678	     29.16238986	      8.39624507	    -17.79493373
      9.47000000	     35.18995888	      9.65014027	     12.77507504	    -73.24900868	    768.54356621	     10.14258489	     10.23817344	     36.21157716	     45.00000000	     33.73197206	     -5.10558491	   2787.64789630	  -3543.05971681	     27.83818205	     64.73443148	   1449.32477573	     28.43474814	     17.31673620	     10.62704482	      4.93489942	    -45.00000000	    -45.00000000	     45.00000000	    -23.52126159	  -1354.05018210	  -2092.51109182	     21.53356460	    -45.61914176	    366.22798825	     29.23138026	      8.72007014	    -18.00652843
      9.48000000	     35.34698345	      9.33502441	     12.53385096	    -72.92504799	    768.67851589	     10.24064550	     10.06504382	     36.29301934	     45.00000000	     33.82029710	     -5.36444859	   2787.94106557	  -3543.07758693	     28.34008750	     65.15578153	   1449.56649194	     28.50219462	     17.47569688	     10.98607573	      5.21625728	    -45.00000000	    -45.00000000	     45.00000000	    -22.93832166	  -1353.26300996	  -2093.13938079	     22.20324587	    -45.27474173	    365.87865496	     29.17298006	      8.21830815	    -17.63983788
      9.49000000	     35.33912353	      9.42385774	     12.54747373	    -72.67163026	    768.80815319	     10.32839117	     10.07524647	     36.24581930	     45.00000000	     33.69950048	     -4.97601668	   2787.81576902	  -3542.93472916	     28.08711966	     64.98092773	   1449.39323004	     28.49606423	     17.40788329	     10.77474901	      4.95736178	    -45.00000000	    -45.00000000	     45.00000000	    -23.12936810	  -1353.90188527	  -2092.78343749	     21.83776684	    -45.50029551	    366.26789175	     29.22234276	      8.51675677	    -17.91314002
      9.50000000	     35.31582527	      9.44083240	     12.60118409	    -72.49006609	    768.92893462	     10.40422081	     10.06372439	     36.28691067	     45.00000000	     33.72084934	     -4.88254707	   2787.70187613	  -3543.10687829	     28.05416219	     64.91062114	   1449.36000506	     28.47998906	     17.39155308	     10.67863571	      4.96802395	    -45.00000000	    -45.00000000	     45.00000000	    -22.99254247	  -1353.81648256	  -2092.89851757	     21.86968491	    -45.45374115	    366.16957956	     29.23383459	      8.43784784	    -17.85785041
